<svg width="100" height="100" viewBox="-7 -19 60 60" fill="none" xmlns="http://www.w3.org/2000/svg">
<path d="M9.57812 16.281C6.24219 16.1443 4.13672 14.1619 4.13672 11.0037C4.13672 7.8728 6.24219 5.87671 9.57812 5.73999V16.281ZM18.4102 11.0173C18.4102 14.1345 16.3047 16.1306 12.9824 16.281V5.73999C16.3047 5.86304 18.4102 7.85913 18.4102 11.0173ZM9.53711 19.1794V21.2712H13.0098V19.1794C18.4375 19.0154 21.9512 15.9392 21.9512 11.0173C21.9512 6.05444 18.4375 2.97827 13.0098 2.82788V0.831787H9.53711V2.82788C4.10938 2.99194 0.582031 6.06812 0.582031 11.0037C0.582031 15.9529 4.10938 19.0427 9.53711 19.1794ZM38.043 20.9158H41.543V1.18726H38.125L28.5547 15.4197H28.377V1.18726H24.8633V20.9158H28.2812L37.8652 6.72437H38.043V20.9158Z" fill="#49C2E8"/>
</svg>
